{"title":"Savages 2012 Cam XviD Feel-Free","uid":7460692,"size":1443682107,"categoryP":"video","categoryS":"movies","magnet":"?xt=urn:btih:9f95542092f4adbf2e0a2c46fb7b2ef4c9ae2e91&amp;dn=Savages+2012+Cam+XviD+Feel-Free&amp;tr=udp%3A%2F%2Ftracker.openbittorrent.com%3A80&amp;tr=udp%3A%2F%2Fopen.demonii.com%3A1337&amp;tr=udp%3A%2F%2Ftracker.coppersurfer.tk%3A6969&amp;tr=udp%3A%2F%2Fexodus.desync.com%3A6969","seeders":2,"leechers":0,"uploader":"hiest","files":-1,"time":1342806602,"description":"8888888888                888      8888888888                       \n888                       888      888                              \n888                       888      888                              \n8888888  .d88b.   .d88b.  888      8888888 888d888 .d88b.   .d88b.  \n888     d8P  Y8b d8P  Y8b 888      888     888P&quot;  d8P  Y8b d8P  Y8b \n888     88888888 88888888 888      888     888    88888888 88888888 \n888     Y8b.     Y8b.     888      888     888    Y8b.     Y8b.     \n888      &quot;Y8888   &quot;Y8888  888      888     888     &quot;Y8888   &quot;Y8888  \n\n\nGenre:Crime | Drama | Thriller\nLanguage:English\nIMDb: &lt;a href=&quot;\nhttp://www.imdb.com/title/tt1615065&quot; rel=&quot;nofollow&quot; target=&quot;_NEW&quot;&gt;\nhttp://www.imdb.com/title/tt1615065&lt;/a&gt;\nSource:KiNGDOM Thanks\nEncoder:Tony\n\nFormat : AVI\nFormat/Info : Audio Video Interleave\nFile size : 1.34 GiB\nDuration : 2h 10mn\nOverall bit rate : 1 474 Kbps\n\nVideo\nID : 0\nFormat : MPEG-4 Visual\nFormat profile : Advanced Simple@L5\nFormat settings, BVOP : 2\nFormat settings, QPel : No\nFormat settings, GMC : No warppoints\nFormat settings, Matrix : Default (H.263)\nMuxing mode : Packed bitstream\nCodec ID : XVID\nCodec ID/Hint : XviD\nDuration : 2h 10mn\nBit rate : 1 302 Kbps\nWidth : 640 pixels\nHeight : 344 pixels\nDisplay aspect ratio : 1.85:1\nFrame rate : 29.970 fps\nColor space : YUV\nChroma subsampling : 4:2:0\nBit depth : 8 bits\nScan type : Progressive\nCompression mode : Lossy\nBits/(Pixel*Frame) : 0.197\nStream size : 1.19 GiB (88%)\nWriting library : XviD 64\n\nAudio\nID : 1\nFormat : AC-3\nFormat/Info : Audio Coding 3\nMode extension : CM (complete main)\nFormat settings, Endianness : Big\nCodec ID : 2000\nDuration : 2h 10mn\nBit rate mode : Constant\nBit rate : 160 Kbps\nChannel(s) : 2 channels\nChannel positions : Front: L R\nSampling rate : 48.0 KHz\nBit depth : 16 bits\nCompression mode : Lossy\nStream size : 149 MiB (11%)\nAlignment : Aligned on interleaves\nInterleave, duration : 33 ms (1.00 video frame)\nInterleave, preload duration : 512 ms\n\n\nPlot:\nPot growers Ben and Chon face off against the Mexican drug cartel who kidnapped their shared girlfriend.\n\nScreen Shots:\n                           &lt;a href=&quot;\nhttp://img687.imageshack.us/img687/3946/vlcsnap2012072017h26m10.png&quot; rel=&quot;nofollow&quot; target=&quot;_NEW&quot;&gt;\nhttp://img687.imageshack.us/img687/3946/vlcsnap2012072017h26m10.png&lt;/a&gt;\n &lt;a href=&quot;\nhttp://img338.imageshack.us/img338/4503/vlcsnap2012072017h27m11.png&quot; rel=&quot;nofollow&quot; target=&quot;_NEW&quot;&gt;\nhttp://img338.imageshack.us/img338/4503/vlcsnap2012072017h27m11.png&lt;/a&gt;\n &lt;a href=&quot;\nhttp://img267.imageshack.us/img267/1347/vlcsnap2012072017h26m43.png&quot; rel=&quot;nofollow&quot; target=&quot;_NEW&quot;&gt;\nhttp://img267.imageshack.us/img267/1347/vlcsnap2012072017h26m43.png&lt;/a&gt;\n &lt;a href=&quot;\nhttp://img15.imageshack.us/img15/3905/vlcsnap2012072017h26m31.png&quot; rel=&quot;nofollow&quot; target=&quot;_NEW&quot;&gt;\nhttp://img15.imageshack.us/img15/3905/vlcsnap2012072017h26m31.png&lt;/a&gt;\n\n\n8888888888                888      8888888888                       \n888                       888      888                              \n888                       888      888                              \n8888888  .d88b.   .d88b.  888      8888888 888d888 .d88b.   .d88b.  \n888     d8P  Y8b d8P  Y8b 888      888     888P&quot;  d8P  Y8b d8P  Y8b \n888     88888888 88888888 888      888     888    88888888 88888888 \n888     Y8b.     Y8b.     888      888     888    Y8b.     Y8b.     \n888      &quot;Y8888   &quot;Y8888  888      888     888     &quot;Y8888   &quot;Y8888  ","torrent":{"xt":"urn:btih:9f95542092f4adbf2e0a2c46fb7b2ef4c9ae2e91","amp;dn":"Savages+2012+Cam+XviD+Feel-Free","amp;tr":["udp%3A%2F%2Ftracker.openbittorrent.com%3A80","udp%3A%2F%2Fopen.demonii.com%3A1337","udp%3A%2F%2Ftracker.coppersurfer.tk%3A6969","udp%3A%2F%2Fexodus.desync.com%3A6969"],"infoHash":"9f95542092f4adbf2e0a2c46fb7b2ef4c9ae2e91","infoHashBuffer":{"type":"Buffer","data":[159,149,84,32,146,244,173,191,46,10,44,70,251,123,46,244,201,174,46,145]},"announce":[],"urlList":[]}}